<svg xmlns="http://www.w3.org/2000/svg" xmlns:xlink="http://www.w3.org/1999/xlink" width="377.362" height="58.512" viewBox="0 0 377.362 58.512">
  <defs>
    <clipPath id="clip-path">
      <rect id="Rectangle_8470" data-name="Rectangle 8470" width="377.362" height="58.511" fill="none"/>
    </clipPath>
  </defs>
  <g id="Group_48686" data-name="Group 48686" transform="translate(0 0)">
    <path id="Path_35434" data-name="Path 35434" d="M64.264,0,53.139,40.457,41.974,0,32.13.078,21.007,40.457,9.841,0H0L16.377,56.018h9.259l11.4-39.833L48.509,56.018h9.257L74.1,0Z" transform="translate(0)" fill="#00aac1"/>
    <g id="Group_48684" data-name="Group 48684" transform="translate(0 0.001)">
      <g id="Group_48683" data-name="Group 48683" clip-path="url(#clip-path)">
        <path id="Path_35435" data-name="Path 35435" d="M68.49,52.572a22.148,22.148,0,0,1-11.2-2.761,19.534,19.534,0,0,1-7.526-7.663,22.974,22.974,0,0,1-2.7-11.283A25.556,25.556,0,0,1,49.7,18.9a19.359,19.359,0,0,1,7.353-7.877,20.9,20.9,0,0,1,10.891-2.8,19.559,19.559,0,0,1,11.108,3.053A18.109,18.109,0,0,1,85.839,19.9,29.461,29.461,0,0,1,87.514,33h-9.3V29.581q-.04-6.846-2.413-10t-7.47-3.151q-5.757,0-8.558,3.559T56.976,30.4q0,6.382,2.8,9.881t8.169,3.5a11.227,11.227,0,0,0,5.973-1.537,10.049,10.049,0,0,0,3.869-4.454l9.259,2.8A18.81,18.81,0,0,1,79.6,49.42,20.513,20.513,0,0,1,68.49,52.572M54.02,25.924h28.9V33H54.02Z" transform="translate(26.389 4.612)" fill="#00aac1"/>
        <path id="Path_35436" data-name="Path 35436" d="M77.762,51.419V9.406h8.363V22.438h1.128V51.419Zm29.137,0V31.191a39.565,39.565,0,0,0-.273-4.4,15.772,15.772,0,0,0-1.263-4.65,9.018,9.018,0,0,0-2.958-3.676,8.8,8.8,0,0,0-5.31-1.439,11.142,11.142,0,0,0-3.54.582,8.079,8.079,0,0,0-3.17,2,10.049,10.049,0,0,0-2.276,3.889,19.613,19.613,0,0,0-.857,6.321l-5.561-2.374a22.273,22.273,0,0,1,2.081-9.724A16.545,16.545,0,0,1,89.9,10.787,18.119,18.119,0,0,1,99.857,8.2a16.841,16.841,0,0,1,7.7,1.556,13.607,13.607,0,0,1,4.824,3.968,17.3,17.3,0,0,1,2.644,5.135,26.291,26.291,0,0,1,1.108,5.154q.253,2.43.253,3.949V51.419Z" transform="translate(43.608 4.599)" fill="#00aac1"/>
        <path id="Path_35437" data-name="Path 35437" d="M109.489,56.018V0h9.374V47.226H143.6v8.792Z" transform="translate(61.4 -0.001)" fill="#fff"/>
        <path id="Path_35438" data-name="Path 35438" d="M154.979,52.573a20.919,20.919,0,0,1-11.01-2.841,19.336,19.336,0,0,1-7.294-7.838,24.654,24.654,0,0,1-2.586-11.5,24.351,24.351,0,0,1,2.646-11.592,19.494,19.494,0,0,1,7.351-7.781,22.75,22.75,0,0,1,21.94.039A19.479,19.479,0,0,1,173.34,18.9a24.508,24.508,0,0,1,2.607,11.5,24.44,24.44,0,0,1-2.625,11.533,19.48,19.48,0,0,1-7.333,7.82,21.012,21.012,0,0,1-11.01,2.822m0-8.792q5.6,0,8.325-3.735a15.973,15.973,0,0,0,2.722-9.647q0-6.108-2.761-9.744t-8.286-3.637a10.618,10.618,0,0,0-6.206,1.692,9.922,9.922,0,0,0-3.6,4.706,19.252,19.252,0,0,0-1.167,6.983q0,6.108,2.781,9.744t8.188,3.638" transform="translate(75.195 4.613)" fill="#fff"/>
        <path id="Path_35439" data-name="Path 35439" d="M185.474,52.573a20.35,20.35,0,0,1-11.088-2.9,18.931,18.931,0,0,1-7.022-7.916A26.113,26.113,0,0,1,164.9,30.4a25.574,25.574,0,0,1,2.547-11.456,19.138,19.138,0,0,1,7.139-7.859,20.536,20.536,0,0,1,11.008-2.858,20.085,20.085,0,0,1,12.12,3.6,16.564,16.564,0,0,1,6.476,9.824l-9.335,2.528A10.286,10.286,0,0,0,191.23,18.9a9.372,9.372,0,0,0-5.756-1.885,9.43,9.43,0,0,0-9.53,6.5,19.617,19.617,0,0,0-1.128,6.885q0,5.993,2.685,9.686t7.974,3.7a9.233,9.233,0,0,0,5.892-1.711,10.3,10.3,0,0,0,3.25-4.943l9.569,2.141a18.048,18.048,0,0,1-6.807,9.861,20.074,20.074,0,0,1-11.9,3.443" transform="translate(92.471 4.613)" fill="#fff"/>
        <path id="Path_35440" data-name="Path 35440" d="M195.027,56.018,195.1,0H204.6V34.234L219.964,14h11.709l-16.3,21.007,17.7,21.007H220.663L204.6,35.79V56.018Z" transform="translate(109.369 -0.001)" fill="#fff"/>
        <path id="Path_35441" data-name="Path 35441" d="M250.189,34.194a11.706,11.706,0,1,1-11.706-11.706,11.706,11.706,0,0,1,11.706,11.706" transform="translate(127.174 12.611)" fill="#00aac1"/>
      </g>
    </g>
  </g>
</svg>
